<svg width="48" height="48" viewBox="0 0 48 48" xmlns="http://www.w3.org/2000/svg">
    <title>ic_logo</title>
    <desc>Created with Sketch.</desc>
    <g fill="none">
        <path fill="none" d="M0 0h48v48h-48z"/>
        <path d="M24 27.52c1.944 0 3.52-1.576 3.52-3.52s-1.576-3.52-3.52-3.52-3.52 1.576-3.52 3.52 1.576 3.52 3.52 3.52zm0 2.64c-3.402 0-6.16-2.758-6.16-6.16s2.758-6.16 6.16-6.16 6.16 2.758 6.16 6.16-2.758 6.16-6.16 6.16zm0 2.64c4.86 0 8.8-3.94 8.8-8.8 0-4.86-3.94-8.8-8.8-8.8-4.86 0-8.8 3.94-8.8 8.8 0 4.86 3.94 8.8 8.8 8.8zm0 2.64c-6.318 0-11.44-5.122-11.44-11.44s5.122-11.44 11.44-11.44 11.44 5.122 11.44 11.44-5.122 11.44-11.44 11.44zm0 2.64c7.776 0 14.08-6.304 14.08-14.08s-6.304-14.08-14.08-14.08-14.08 6.304-14.08 14.08 6.304 14.08 14.08 14.08zm0 2.64c-9.234 0-16.72-7.486-16.72-16.72 0-9.234 7.486-16.72 16.72-16.72 9.234 0 16.72 7.486 16.72 16.72 0 9.234-7.486 16.72-16.72 16.72zm0 2.64c10.692 0 19.36-8.668 19.36-19.36s-8.668-19.36-19.36-19.36-19.36 8.668-19.36 19.36 8.668 19.36 19.36 19.36zm0 2.64c-12.15 0-22-9.85-22-22s9.85-22 22-22 22 9.85 22 22-9.85 22-22 22z"
              fill="#fff" fill-rule="nonzero"/>
    </g>
</svg>
